<?xml version="1.0" encoding="iso-8859-1"?>
<!-- Uploaded to: SVG Repo, www.svgrepo.com, Generator: SVG Repo Mixer Tools -->
<svg version="1.1" id="Layer_1" xmlns="http://www.w3.org/2000/svg" xmlns:xlink="http://www.w3.org/1999/xlink" 
	 viewBox="0 0 512.001 512.001" xml:space="preserve">
<polygon style="fill:#FED9A8;" points="256.001,394.492 340.324,313.42 302.557,296.093 297.233,263.541 256.728,250.046 
	256.728,249.535 256.001,249.791 255.274,249.535 255.274,250.046 214.768,263.541 209.444,296.093 170.685,313.735 "/>
<path style="fill:#37CC8F;" d="M504.258,400.258c-2.805-32.287-25.311-59.261-56.156-67.305l-103.664-27.034l-88.437,84.865
	l-88.437-84.865L63.899,332.953c-30.845,8.044-53.35,35.018-56.156,67.305l-7.688,88.482c-0.732,8.425,5.91,15.67,14.368,15.67
	h240.488h2.178h240.488c8.458,0,15.1-7.245,14.368-15.67L504.258,400.258z"/>
<path style="fill:#2AA86F;" d="M504.258,400.258c-2.805-32.287-25.311-59.261-56.156-67.305l-103.664-27.034l-5.242,5.031
	l84.372,22.002c30.845,8.044,53.35,35.018,56.156,67.305l9.049,104.153h8.805c8.458,0,15.1-7.245,14.368-15.67L504.258,400.258z"/>
<path style="fill:#FE9901;" d="M322.119,243.98H189.884c-29.628,0-53.646-24.018-53.646-53.646V85.04
	c0-42.774,34.675-77.449,77.449-77.449h84.629c42.774,0,77.449,34.675,77.449,77.449v105.295
	C375.764,219.963,351.747,243.98,322.119,243.98z"/>
<path style="fill:#ED8803;" d="M298.316,7.591h-24.534c42.774,0,77.449,34.676,77.449,77.45v105.295
	c0,29.628-24.019,53.646-53.646,53.646h24.534c29.628,0,53.646-24.018,53.646-53.646V85.04
	C375.764,42.266,341.09,7.591,298.316,7.591z"/>
<path style="fill:#FED9A8;" d="M287.085,128.548c-48.986,0-93.059-14.791-123.694-38.368v102.857
	c0,35.248,32.331,76.451,66.512,85.056l0,0c22.209,5.591,28.707,5.629,50.935,0.11l1.015-0.252
	c34.3-8.515,66.756-49.776,66.756-85.117v-72.488C329.562,125.639,308.807,128.548,287.085,128.548z"/>
<path style="fill:#F7CA94;" d="M324.076,125.657v67.177c0,35.341-32.456,76.601-66.756,85.117l-1.015,0.252
	c-5.031,1.249-9.252,2.211-13.036,2.89c12.724,2.302,20.526,1.341,37.57-2.89l1.015-0.252c34.3-8.516,66.756-49.776,66.756-85.117
	v-72.488C340.709,122.541,332.511,124.32,324.076,125.657z"/>
<g>
	<path style="fill:#FEC373;" d="M357.016,178.031h-8.406v-45.301h8.406c7.163,0,12.969,5.807,12.969,12.969v19.363
		C369.985,172.224,364.178,178.031,357.016,178.031z"/>
	<path style="fill:#FEC373;" d="M154.986,178.031h8.406v-45.301h-8.406c-7.163,0-12.969,5.807-12.969,12.969v19.363
		C142.017,172.224,147.823,178.031,154.986,178.031z"/>
</g>
<path style="fill:#2AA86F;" d="M264.126,440.952v-56.003c0-0.609-0.073-1.199-0.199-1.77l-7.926,7.606l-7.926-7.606
	c-0.127,0.57-0.199,1.161-0.199,1.77v56.003c0,4.487,3.638,8.125,8.125,8.125C260.488,449.077,264.126,445.439,264.126,440.952z"/>
<polygon style="fill:#666666;" points="364.228,311.081 355.612,308.834 355.612,369.044 364.228,369.044 "/>
<g>
	<path style="fill:#999999;" d="M348.284,480.168l-6.793-1.749c-1.237-0.319-2.532,0.246-3.14,1.368l-3.824,7.054
		c-0.609,1.122-0.375,2.516,0.567,3.378l5.172,4.738c1.335,1.223,3.464,0.866,4.326-0.726l5.445-10.043
		C350.9,482.598,350.037,480.619,348.284,480.168z"/>
	<path style="fill:#999999;" d="M371.557,480.168l6.792-1.749c1.237-0.319,2.532,0.246,3.14,1.368l3.824,7.054
		c0.609,1.122,0.375,2.516-0.567,3.378l-5.172,4.738c-1.335,1.223-3.464,0.866-4.326-0.726l-5.445-10.043
		C368.942,482.598,369.804,480.619,371.557,480.168z"/>
</g>
<path style="fill:#666666;" d="M367.703,368.233h-7.782h-7.782c-15.967,0-28.957,13.193-28.957,29.41v70.616
	c0,7.264,3.935,13.987,10.268,17.545l1.256,0.705l3.522-6.497l-1.159-0.651c-4.007-2.252-6.497-6.506-6.497-11.102v-70.616
	c0-12.143,9.675-22.02,21.566-22.02h7.782h7.782c11.892,0,21.566,9.878,21.566,22.02v70.616c0,4.597-2.49,8.851-6.497,11.102
	l-1.159,0.651l3.522,6.497l1.256-0.705c6.333-3.558,10.268-10.281,10.268-17.545v-70.616
	C396.659,381.426,383.668,368.233,367.703,368.233z"/>
<polygon style="fill:#999999;" points="365.874,365.76 365.874,361.179 353.968,361.179 353.968,365.76 351.812,365.76 
	351.812,377.666 368.03,377.666 368.03,365.76 "/>
<polygon style="fill:#666666;" points="143.836,312.106 135.22,314.353 135.22,407.828 143.836,407.828 "/>
<ellipse style="fill:#CCCCCC;" cx="139.529" cy="419.994" rx="13.537" ry="13.779"/>
<rect x="133.917" y="383.755" style="fill:#E6E6E6;" width="11.537" height="12.882"/>
<ellipse style="fill:#CCCCCC;" cx="139.529" cy="419.994" rx="25.982" ry="26.448"/>
<ellipse style="fill:#E6E6E6;" cx="139.529" cy="419.994" rx="21.776" ry="22.166"/>
<ellipse style="fill:#F2F2F2;" cx="139.529" cy="419.994" rx="11.95" ry="12.168"/>
<g>
	<path style="fill:#2AA86F;" d="M98.111,504.409l6.927-78.077c0.397-4.47-2.906-8.416-7.376-8.812
		c-4.478-0.394-8.416,2.906-8.812,7.376l-6.991,78.795c-0.022,0.242-0.027,0.48-0.027,0.717h16.279V504.409z"/>
	<path style="fill:#2AA86F;" d="M430.142,503.692l-6.991-78.795c-0.397-4.47-4.337-7.772-8.812-7.376
		c-4.469,0.397-7.772,4.342-7.376,8.812l6.927,78.077h16.278C430.169,504.172,430.164,503.933,430.142,503.692z"/>
</g>
<g>
	<path style="fill:#4D4D4D;" d="M203.49,166.761c-4.487,0-8.125-3.638-8.125-8.125v-6.511c0-4.487,3.638-8.125,8.125-8.125
		c4.487,0,8.125,3.638,8.125,8.125v6.511C211.615,163.123,207.977,166.761,203.49,166.761z"/>
	<path style="fill:#4D4D4D;" d="M308.398,166.761c-4.487,0-8.125-3.638-8.125-8.125v-6.511c0-4.487,3.638-8.125,8.125-8.125
		c4.487,0,8.125,3.638,8.125,8.125v6.511C316.523,163.123,312.885,166.761,308.398,166.761z"/>
</g>
</svg>