<?xml version="1.0" encoding="utf-8"?>
<!-- Uploaded to: SVG Repo, www.svgrepo.com, Generator: SVG Repo Mixer Tools -->
<svg width="800px" height="800px" viewBox="0 0 1024 1024" class="icon"  version="1.1" xmlns="http://www.w3.org/2000/svg"><path d="M254.832 410.496V84.984h514.336v325.512" fill="#0085BF" /><path d="M254.832 281.304v-196.32h514.336v196.32" fill="#0092D2" /><path d="M242.752 841.2H105.688C51.696 841.2 8 797.416 8 743.512V500.096c0-53.936 43.696-97.72 97.688-97.72h812.616c53.968 0 97.696 43.792 97.696 97.72v243.416c0 53.896-43.728 97.688-97.696 97.688H783.608" fill="#F5B146" /><path d="M8 532.256v211.256c0 53.896 43.696 97.688 97.688 97.688h812.616c53.968 0 97.696-43.792 97.696-97.688V532.256" fill="#EDA02F" /><path d="M254.832 718.288h514.328v219.368H254.832z" fill="#E5226B" /><path d="M254.832 862.832h514.328v76.192H254.832z" fill="#C9005B" /></svg>