<?xml version="1.0" encoding="iso-8859-1"?>
<!-- Uploaded to: SVG Repo, www.svgrepo.com, Generator: SVG Repo Mixer Tools -->
<svg version="1.1" id="Layer_1" xmlns="http://www.w3.org/2000/svg" xmlns:xlink="http://www.w3.org/1999/xlink" 
	 viewBox="0 0 512 512" xml:space="preserve">
<path style="fill:#FBA218;" d="M87.595,191.174v-7.535c0-8.842,7.371-16.01,16.213-16.01s16.213,7.168,16.213,16.01v7.535"/>
<path style="fill:#84DCCF;" d="M463.38,479.824H48.621c-22.519,0-40.775-18.256-40.775-40.775V232.42
	c0-22.52,18.256-40.776,40.775-40.776H463.38c22.519,0,40.775,18.256,40.775,40.776v206.629
	C504.155,461.568,485.899,479.824,463.38,479.824z"/>
<path style="fill:#027EA8;" d="M48.207,479.824c-22.291,0-40.362-18.071-40.362-40.362V232.006
	c0-22.291,18.071-40.362,40.362-40.362h415.587"/>
<path style="fill:#FBA218;" d="M456.628,455.809H55.372c-12.985,0-23.512-10.527-23.512-23.512V239.171
	c0-12.985,10.527-23.512,23.512-23.512h401.256c12.985,0,23.512,10.527,23.512,23.512v193.126
	C480.14,445.282,469.613,455.809,456.628,455.809z"/>
<path d="M456.628,463.654H55.372c-17.29,0-31.357-14.067-31.357-31.356V239.171c0-17.29,14.067-31.358,31.357-31.358h401.256
	c17.29,0,31.357,14.067,31.357,31.358v193.126C487.985,449.587,473.918,463.654,456.628,463.654z M55.372,223.504
	c-8.639,0-15.667,7.029-15.667,15.668v193.126c0,8.639,7.028,15.666,15.667,15.666h401.256c8.639,0,15.667-7.028,15.667-15.666
	V239.171c0-8.639-7.029-15.668-15.667-15.668H55.372V223.504z"/>
<path style="fill:#F15A24;" d="M432.11,215.659H55.561c-13.09,0-23.701,10.612-23.701,23.701v192.749
	c0,13.09,10.612,23.701,23.701,23.701H79.89"/>
<rect x="95.897" y="247.681" style="fill:#FFFFFF;" width="320.2" height="48.03"/>
<g>
	<circle style="fill:#84DCCF;" cx="95.897" cy="383.765" r="32.02"/>
	<circle style="fill:#84DCCF;" cx="416.097" cy="383.765" r="32.02"/>
</g>
<path style="fill:#027EA8;" d="M95.9,383.764c0-11.822,6.479-22.032,16.01-27.579c-4.726-2.751-10.147-4.441-16.01-4.441
	c-17.685,0-32.02,14.335-32.02,32.02c0,17.684,14.335,32.02,32.02,32.02c5.863,0,11.284-1.69,16.01-4.441
	C102.379,405.796,95.9,395.586,95.9,383.764z"/>
<path d="M456.674,463.654H55.327c-17.265,0-31.312-14.047-31.312-31.311V239.125c0-17.265,14.047-31.312,31.312-31.312h401.347
	c17.265,0,31.312,14.047,31.312,31.312v193.217C487.985,449.607,473.939,463.654,456.674,463.654z M55.327,223.504
	c-8.614,0-15.622,7.007-15.622,15.622v193.217c0,8.614,7.008,15.621,15.622,15.621h401.347c8.614,0,15.622-7.007,15.622-15.621
	V239.125c0-8.614-7.007-15.622-15.622-15.622H55.327V223.504z"/>
<path d="M95.9,423.629c-21.982,0-39.865-17.883-39.865-39.865S73.918,343.9,95.9,343.9s39.865,17.883,39.865,39.864
	C135.765,405.746,117.882,423.629,95.9,423.629z M95.9,359.589c-13.33,0-24.175,10.845-24.175,24.174
	c0,13.33,10.845,24.175,24.175,24.175s24.175-10.845,24.175-24.175C120.075,370.435,109.23,359.589,95.9,359.589z"/>
<rect x="87.592" y="319.834" style="fill:#FFFFFF;" width="15.69" height="15.69"/>
<path d="M416.1,423.629c-21.982,0-39.864-17.883-39.864-39.865S394.12,343.9,416.1,343.9c21.983,0,39.865,17.883,39.865,39.864
	C455.965,405.746,438.082,423.629,416.1,423.629z M416.1,359.589c-13.329,0-24.174,10.845-24.174,24.174
	c0,13.33,10.845,24.175,24.174,24.175c13.33,0,24.175-10.845,24.175-24.175C440.275,370.435,429.43,359.589,416.1,359.589z"/>
<rect x="247.629" y="263.35" style="fill:#027EA8;" width="15.69" height="32.426"/>
<rect x="408.712" y="319.834" style="fill:#FFFFFF;" width="15.69" height="15.69"/>
<path d="M88.055,239.834v63.72h335.89v-63.72H88.055z M408.255,287.864h-16.276v-24.517h-15.69v24.517h-16.736v-7.781h-15.69v7.781
	h-15.69v-24.517h-15.69v24.517h-16.736v-7.781h-15.69v7.781h-48.116v-7.781h-15.69v7.781h-16.736v-24.517h-15.69v24.517h-15.69
	v-7.781h-15.69v7.781h-16.736v-24.517h-15.69v24.517h-16.276v-32.34h304.51V287.864z"/>
<rect x="199.513" y="319.834" width="112.967" height="15.69"/>
<rect x="168.133" y="352.26" width="175.727" height="15.69"/>
<rect x="168.133" y="383.64" width="175.727" height="15.69"/>
<rect x="192.191" y="416.066" width="120.289" height="15.69"/>
<rect x="87.592" y="376.318" width="16.736" height="15.69"/>
<rect x="407.666" y="376.318" width="16.736" height="15.69"/>
<polygon points="111.653,135.737 95.963,135.737 95.963,113.735 453.807,8.074 458.251,23.123 111.653,125.462 "/>
<path d="M463.382,183.799h-71.403v-16.683h-15.69v16.683h-8.368v-16.683h-15.69v16.683h-8.368v-16.683h-15.69v16.683H127.343v-0.159
	c0-10.575-6.463-19.333-15.69-22.541v-16.994h-15.69v16.994c-9.227,3.207-15.69,11.965-15.69,22.541v0.159H48.618
	C21.81,183.799,0,205.609,0,232.417v206.634c0,24.05,17.557,44.065,40.525,47.931v16.944h15.69v-16.258h399.57v16.258h15.69v-16.944
	C494.442,483.116,512,463.101,512,439.051V232.417C512,205.608,490.19,183.799,463.382,183.799z M95.963,183.64
	c0-4.579,3.446-8.166,7.845-8.166s7.845,3.587,7.845,8.166v0.159h-15.69V183.64z M496.31,439.051
	c0,18.155-14.772,32.927-32.928,32.927H48.618c-18.156,0-32.928-14.772-32.928-32.927V232.417c0-18.156,14.772-32.928,32.928-32.928
	h414.763c18.156,0,32.928,14.772,32.928,32.928v206.634H496.31z"/>
</svg>