<?xml version="1.0" encoding="iso-8859-1"?>
<!-- Uploaded to: SVG Repo, www.svgrepo.com, Generator: SVG Repo Mixer Tools -->
<svg height="800px" width="800px" version="1.1" id="Layer_1" xmlns="http://www.w3.org/2000/svg" xmlns:xlink="http://www.w3.org/1999/xlink" 
	 viewBox="0 0 512 512" xml:space="preserve">
<path style="fill:#FFEECC;" d="M450.755,512h-267.13c-9.217,0-16.696-7.479-16.696-16.696v-66.783
	c0-9.217,7.479-16.696,16.696-16.696h267.13c9.217,0,16.696,7.479,16.696,16.696v66.783C467.451,504.521,459.972,512,450.755,512z"
	/>
<path style="fill:#FFD9B3;" d="M450.755,411.826H317.19V512h133.565c9.217,0,16.696-7.479,16.696-16.696v-66.783
	C467.451,419.305,459.972,411.826,450.755,411.826z"/>
<path style="fill:#FF5600;" d="M500.174,168.96c-0.518-7.066-1.457-14.009-2.789-20.822l-46.626,46.627l-66.787-66.779
	l-66.789,66.79c-0.002,0.001-0.006,0.002-0.009,0.002c-0.014,0-0.041-0.014-0.085-0.049l-77.132-67.425L173.2,194.062
	c-0.072-0.013-0.12-0.056-0.162-0.109l-18.357-26.237l0.004,0.019h-20.369c-0.557,5.231-0.779,10.574-0.779,15.917v33.614
	l-8.459-8.458c-26.045-26.045-68.341-26.045-94.386,0s-26.045,68.341,0,94.386l103.624,103.624
	c3.673,21.816,22.483,38.4,45.301,38.4h271.137c27.603,0,50.087-22.483,50.087-50.087V183.652
	C500.842,178.755,500.62,173.857,500.174,168.96z"/>
<path style="fill:#D94700;" d="M476.355,169.183l0.01-0.024l-25.606,25.606l-66.787-66.779l-66.783,66.784v250.449h133.565
	c27.603,0,50.087-22.483,50.087-50.087V183.652c0-4.823-0.218-9.647-0.65-14.47H476.355z"/>
<path style="fill:#FF5600;" d="M492.606,129.336C469.454,54.428,399.555,0,317.19,0c-80.028,0-148.369,51.534-173.412,123.103
	l10.903,44.614l18.357,26.237c0.042,0.052,0.09,0.095,0.163,0.109l66.757-66.758l77.132,67.425c0.043,0.036,0.07,0.049,0.085,0.049
	c0.003,0,0.007-0.001,0.009-0.002l66.789-66.79l66.787,66.779l46.626-46.626C496.137,141.749,494.545,135.476,492.606,129.336z"/>
<path style="fill:#D94700;" d="M492.606,129.336C469.454,54.428,399.555,0,317.19,0v194.768l66.783-66.784l66.787,66.779
	l25.606-25.606L492.606,129.336z"/>
<path style="fill:#FFEECC;" d="M500.174,168.96l-37.621,37.621c-6.567,6.567-17.03,6.567-23.597,0l-54.984-54.984l-54.984,54.984
	c-6.104,6.104-15.994,6.662-22.817,0.779l-65.447-57.21l-55.763,55.763c-7.277,7.277-19.383,6.226-25.489-2.226l-25.155-35.951
	c1.224-15.471,4.563-30.499,9.461-44.633l31.61,45.078l52.758-52.647c6.233-6.233,16.139-6.567,22.817-0.779l65.447,57.21
	l55.763-55.763c6.567-6.567,17.03-6.567,23.597,0l54.984,54.984l41.85-41.85C496.613,142.024,499.173,155.27,500.174,168.96z"/>
<path style="fill:#FFD9B3;" d="M450.755,171.186l-54.984-54.984c-6.567-6.567-17.03-6.567-23.597,0l-54.984,54.984v40.292
	c4.23,0,8.57-1.67,11.798-4.897l54.984-54.984l54.984,54.984c6.567,6.567,17.03,6.567,23.597,0l37.621-37.621
	c-1.002-13.69-3.562-26.936-7.569-39.624L450.755,171.186z"/>
</svg>