<?xml version="1.0" encoding="iso-8859-1"?>
<!-- Uploaded to: SVG Repo, www.svgrepo.com, Generator: SVG Repo Mixer Tools -->
<svg version="1.1" id="Layer_1" xmlns="http://www.w3.org/2000/svg" xmlns:xlink="http://www.w3.org/1999/xlink" 
	 viewBox="0 0 512 512" xml:space="preserve">
<path style="fill:#CD5421;" d="M148.376,246.291v164.843h101.355V253.332C213.482,253.073,179.162,250.571,148.376,246.291z"/>
<path style="fill:#FF6A2A;" d="M457.477,139.984c-14.939,6.32-30.973,10.541-46.747,14.167c-15.75,3.621-31.691,6.436-47.7,8.628
	c-32.465,4.445-65.239,6.631-98.001,6.938c-32.888,0.309-65.805-1.116-98.499-4.75c-32.341-3.594-64.877-9.109-95.884-19.183
	c-14.558-4.73-29.162-10.418-42.009-18.864c-8.311-5.464-17.11-12.818-19.952-22.771c-0.554-1.937-0.848-3.946-0.848-5.96
	c0,4.819,0,9.638,0,14.457c0,10.329,0,20.659,0,30.988c0,9.615,0,19.23,0,28.846c0,4.314-0.434,8.97,0.37,13.243
	c1.304,6.928,5.836,12.776,10.906,17.451c7.137,6.582,15.76,11.487,24.481,15.639c11.68,5.561,23.967,9.817,36.376,13.419
	c15.206,4.414,30.7,7.812,46.287,10.574c17.897,3.172,35.942,5.488,54.039,7.158c20.072,1.853,40.218,2.903,60.372,3.257
	c20.813,0.366,41.642-0.001,62.427-1.153c19.13-1.061,38.23-2.784,57.222-5.325c16.919-2.264,33.767-5.167,50.404-8.999
	c14.017-3.228,27.925-7.097,41.417-12.109c10.572-3.928,21.024-8.542,30.524-14.669c6.763-4.361,13.414-9.663,17.68-16.603
	c2.686-4.371,3.822-8.992,3.822-14.075c0-7.119,0-14.239,0-21.358c0-10.775,0-21.549,0-32.324c0-8.216,0-16.432,0-24.648
	c0-1.256,0-2.513,0-3.77c0,15.912-16.599,26.89-28.945,33.578C469.485,134.872,463.53,137.561,457.477,139.984
	C457.206,140.099,486.86,128.228,457.477,139.984z"/>
<path style="fill:#FFFFFF;" d="M8.683,104.144c-0.554-1.933-0.846-3.939-0.846-5.956v74.292c0,4.315-0.439,8.965,0.366,13.239
	c1.306,6.928,5.841,12.779,10.909,17.45c3.135,2.894,6.562,5.465,10.146,7.785v-83.644c-0.209-0.115-0.418-0.251-0.616-0.387
	C20.323,121.458,11.525,114.101,8.683,104.144z"/>
<g>
	<path style="fill:#CD5421;" d="M483.24,126.922c-0.199,0.136-0.408,0.272-0.616,0.387v83.644c3.584-2.32,7.011-4.89,10.146-7.785
		c5.068-4.671,9.603-10.522,10.909-17.45c0.805-4.274,0.366-8.923,0.366-13.239V98.188c0,2.017-0.293,4.023-0.846,5.956
		C500.356,114.101,491.558,121.458,483.24,126.922z"/>
	<path style="fill:#CD5421;" d="M453.538,388.136l-95.242,34.659l-91.481-251.361l4.984-1.818
		c35.673-0.648,69.298-3.459,99.297-8.004L453.538,388.136z"/>
</g>
<path style="fill:#FF6A2A;" d="M418.367,291.483l-95.242,34.67l-56.31-154.718l4.984-1.818c35.673-0.648,69.298-3.459,99.297-8.004
	L418.367,291.483z"/>
<path style="fill:#CD5421;" d="M256,26.612c-137.059,0-248.163,32.047-248.163,71.576c0,15.6,17.304,30.041,46.686,41.796
	c45.056-18.035,118.512-29.78,201.477-29.78s156.421,11.745,201.477,29.78c29.383-11.755,46.686-26.196,46.686-41.796
	C504.163,58.659,393.059,26.612,256,26.612z"/>
<rect x="140.539" y="467.561" width="15.673" height="15.673"/>
<rect x="174.32" y="467.561" width="15.673" height="15.673"/>
<rect x="208.112" y="467.561" width="15.673" height="15.673"/>
<rect x="241.894" y="467.561" width="15.673" height="15.673"/>
<path d="M256,18.775c-67.001,0-130.092,7.554-177.649,21.271C27.093,54.831,0,74.936,0,98.188v83.592
	c0,35.298,61.771,59.47,140.539,71.217v158.138v7.837v32.914h15.673v-32.914h18.111v32.914h15.673v-32.914h18.111v32.914h15.673
	v-32.914h18.112v32.914h15.673v-32.914v-7.837V261.182c11.132-0.02,22.299-0.26,33.314-0.703l62.73,172.36l0.002-0.001
	l11.259,30.932l14.729-5.361l-11.258-30.931l17.019-6.193l11.258,30.931l14.729-5.361l-11.257-30.929l17.019-6.193l11.257,30.929
	l14.729-5.361l-11.257-30.928l17.018-6.193l11.257,30.926l14.729-5.361l-13.938-38.292l-0.005,0.002l-50.787-139.545
	c28.444-6.405,52.275-14.608,69.277-23.903C501.029,210.177,512,196.642,512,181.779V98.188C512,46.606,380.104,18.775,256,18.775z
	 M82.694,55.105C128.88,41.785,190.427,34.449,256,34.449s127.12,7.336,173.306,20.658c41.966,12.103,67.021,28.208,67.021,43.081
	c0,11.165-14.121,23.024-38.916,33.365c-47.644-18.298-122.546-29.185-201.41-29.185c-78.866,0-153.767,10.887-201.41,29.185
	c-24.794-10.34-38.916-22.2-38.916-33.365C15.673,83.315,40.728,67.21,82.694,55.105z M256,161.926
	c-65.573,0-127.12-7.336-173.306-20.657c-1.462-0.422-2.898-0.85-4.318-1.28c45.762-13.878,110.06-21.949,177.623-21.949
	s131.861,8.071,177.624,21.948c-1.42,0.431-2.856,0.859-4.318,1.28C383.12,154.589,321.573,161.926,256,161.926z M15.673,127.079
	C54.185,160.078,157.539,177.6,256,177.6c1.574,0,3.143-0.008,4.712-0.017l9.467,26.013c-4.742,0.077-9.481,0.126-14.179,0.126
	c-65.573,0-127.121-7.336-173.307-20.657c-62.187-17.938-67.02-37.511-67.02-43.082V127.079z M156.212,255.142
	c27.519,3.444,56.666,5.437,85.682,5.926v142.23h-85.682V255.142z M256,245.518c-65.573,0-127.121-7.336-173.307-20.657
	c-62.187-17.938-67.02-37.511-67.02-43.082v-12.904C54.185,201.874,157.539,219.396,256,219.396c6.57,0,13.216-0.097,19.841-0.246
	l9.413,25.865C275.556,245.347,265.758,245.518,256,245.518z M362.98,412.752l-85.677-235.413
	c31.086-0.751,61.026-3.144,88.617-7.033l77.573,213.147L362.98,412.752z M404.713,231.066l-8.734-24
	c29.354-5.754,76.131-17.664,100.348-38.274v12.987C496.327,195.427,472.173,216.25,404.713,231.066z M467.986,168.498
	c-18.794,9.467-45.467,17.608-77.433,23.661l-8.839-24.287c18.731-3.14,36.189-7.002,51.937-11.544
	c28.574-8.241,49.628-18.138,62.676-29.31v12.965C496.327,149.166,486.262,159.292,467.986,168.498z"/>
<rect x="372.435" y="475.343" transform="matrix(0.342 0.9397 -0.9397 0.342 704.263 -39.4084)" width="15.673" height="15.673"/>
<rect x="404.214" y="463.812" transform="matrix(0.342 0.9397 -0.9397 0.342 714.3381 -76.859)" width="15.673" height="15.673"/>
<rect x="435.934" y="452.24" transform="matrix(0.342 0.9397 -0.9397 0.342 724.3348 -114.2811)" width="15.673" height="15.673"/>
<rect x="467.671" y="440.678" transform="matrix(0.342 0.9397 -0.9397 0.342 734.3535 -151.7122)" width="15.673" height="15.673"/>
</svg>