<?xml version="1.0" encoding="iso-8859-1"?>
<!-- Uploaded to: SVG Repo, www.svgrepo.com, Generator: SVG Repo Mixer Tools -->
<svg height="800px" width="800px" version="1.1" id="Layer_1" xmlns="http://www.w3.org/2000/svg" xmlns:xlink="http://www.w3.org/1999/xlink" 
	 viewBox="0 0 512.06 512.06" xml:space="preserve">
<g>
	<path style="fill:#962B23;" d="M510.232,297.303L391.801,95.955c-2.436-4.167-5.57-7.892-9.269-10.999
		c-7.592-6.382-17.196-9.878-27.109-9.878h-37.614l-61.793,70.621l-43.352,312.038c38.029,10.09,78.689,6.912,114.9-9.984
		l60.849-28.398l0.018-223.338l76.703,129.174c3.319,5.597,10.522,7.477,16.163,4.22l24.143-13.939
		C511.803,311.798,513.957,303.641,510.232,297.303"/>
	<g>
		<path style="fill:#C03A2B;" d="M256.014,145.697l-61.793-70.621h-37.614c-9.913,0-19.518,3.496-27.11,9.878
			c-3.699,3.107-6.833,6.833-9.269,10.999L1.621,299.059c-3.319,5.694-1.377,12.994,4.326,16.287l25.309,14.61
			c5.65,3.266,12.879,1.359,16.19-4.273l76.156-129.668l-0.018,223.338l60.849,28.398c9.145,4.264,18.626,7.442,28.231,9.984
			L256.014,145.697z"/>
		<path style="fill:#C03A2B;" d="M291.312,181.007c0,4.873-3.955,8.828-8.828,8.828c-4.873,0-8.828-3.955-8.828-8.828
			c0-4.873,3.955-8.828,8.828-8.828C287.357,172.18,291.312,176.135,291.312,181.007"/>
		<path style="fill:#C03A2B;" d="M282.484,242.801c0,4.873-3.955,8.828-8.828,8.828c-4.873,0-8.828-3.955-8.828-8.828
			s3.955-8.828,8.828-8.828C278.529,233.973,282.484,237.928,282.484,242.801"/>
		<path style="fill:#C03A2B;" d="M273.656,304.594c0,4.873-3.955,8.828-8.828,8.828s-8.828-3.955-8.828-8.828
			c0-4.873,3.955-8.828,8.828-8.828S273.656,299.721,273.656,304.594"/>
		<path style="fill:#C03A2B;" d="M264.829,366.387c0,4.873-3.955,8.828-8.828,8.828s-8.828-3.955-8.828-8.828
			c0-4.873,3.955-8.828,8.828-8.828S264.829,361.514,264.829,366.387"/>
	</g>
	<path style="fill:#771A18;" d="M194.222,75.076c0-14.627,27.666-26.483,61.793-26.483s61.793,11.855,61.793,26.483l-61.793,70.621
		L194.222,75.076z"/>
	<polygon style="fill:#C03A2B;" points="308.98,154.525 280.97,117.175 317.808,75.076 353.118,75.076 	"/>
	<polygon style="fill:#962B23;" points="203.05,154.525 231.06,117.175 194.222,75.076 158.912,75.076 	"/>
	<g>
		<path style="fill:#C03A2B;" d="M335.449,251.628c-4.873,0-8.828-3.955-8.828-8.828c0-9.737-7.918-17.655-17.655-17.655
			c-4.873,0-8.828-3.955-8.828-8.828s3.955-8.828,8.828-8.828c10.531,0,20.012,4.634,26.483,11.979
			c6.471-7.345,15.951-11.979,26.483-11.979c4.873,0,8.828,3.955,8.828,8.828s-3.955,8.828-8.828,8.828
			c-9.737,0-17.655,7.918-17.655,17.655C344.277,247.673,340.322,251.628,335.449,251.628"/>
		<path style="fill:#C03A2B;" d="M465.129,324.711c3.319,5.597,10.531,7.477,16.163,4.228l24.152-13.948
			c6.365-3.672,8.51-11.829,4.785-18.167l-15.625-26.571l-44.862,28.54L465.129,324.711z"/>
	</g>
	<path style="fill:#962B23;" d="M17.766,270.943L1.629,298.582c-3.328,5.694-1.386,12.994,4.317,16.287l25.309,14.61
		c5.65,3.266,12.888,1.359,16.19-4.273l17.276-29.405L17.766,270.943z"/>
</g>
</svg>