<?xml version="1.0" encoding="iso-8859-1"?>
<!-- Uploaded to: SVG Repo, www.svgrepo.com, Generator: SVG Repo Mixer Tools -->
<svg height="800px" width="800px" version="1.1" id="Layer_1" xmlns="http://www.w3.org/2000/svg" xmlns:xlink="http://www.w3.org/1999/xlink" 
	 viewBox="0 0 512.004 512.004" xml:space="preserve">
<g transform="translate(0 -1)">
	<path style="fill:#58555D;" d="M123.471,428.524C394.92,487.016,512,415.786,512,415.786v26.483
		c-141.056,87.605-377.785,18.211-379.586,17.752l-8.828,8.828H0v-44.138l85.442-0.097
		C98.216,424.613,110.98,425.832,123.471,428.524"/>
	<path style="fill:#77757E;" d="M512.002,415.912c-2.763-16.534-26.483-26.509-26.483-26.509s-141.974-2.207-185.379-52.966
		c-43.405-50.759-88.276-61.793-88.276-61.793l-17.655,17.655C83.131,400.437,17.657,309.954,17.657,309.954
		c-33.439,51.447-8.872,114.635-8.828,114.741l76.615-0.088c12.774,0,25.538,1.227,38.02,3.919
		c271.457,58.492,388.537-12.747,388.537-12.747V415.912z"/>
	<path style="fill:#58555D;" d="M310.51,346.253L310.51,346.253c-3.858-3.063-7.371-6.312-10.372-9.816
		c-43.405-50.759-88.276-61.793-88.276-61.793l-17.655,17.655c-5.87,5.711-11.582,10.752-17.196,15.404l55.314,45.859
		C255.929,373.133,290.94,369.858,310.51,346.253"/>
	<g>
		<path style="fill:#77757E;" d="M229.519,318.779c-2.26,0-4.52-0.865-6.241-2.587c-3.452-3.452-3.452-9.031,0-12.482l17.655-17.655
			c3.452-3.452,9.031-3.452,12.482,0c3.452,3.452,3.452,9.031,0,12.482l-17.655,17.655
			C234.039,317.913,231.779,318.779,229.519,318.779"/>
		<path style="fill:#77757E;" d="M256.002,345.248c-2.26,0-4.511-0.865-6.241-2.578c-3.443-3.452-3.452-9.039-0.009-12.491
			l22.334-22.36c3.443-3.46,9.031-3.46,12.482-0.009c3.452,3.443,3.452,9.031,0.009,12.482l-22.325,22.369
			C260.521,344.383,258.262,345.248,256.002,345.248"/>
	</g>
	<path style="fill:#58555D;" d="M388.532,181.352C117.084,239.843,0.004,168.613,0.004,168.613v26.483
		c141.056,87.605,377.785,18.211,379.586,17.752l8.828,8.828h123.586v-44.138l-85.442-0.097
		C413.788,177.441,401.023,178.659,388.532,181.352"/>
	<path style="fill:#77757E;" d="M0.002,168.74c2.763-16.534,26.483-26.509,26.483-26.509s141.974-2.207,185.379-52.966
		s88.276-61.793,88.276-61.793l17.655,17.655c111.078,108.138,176.552,17.655,176.552,17.655
		c33.439,51.447,8.872,114.635,8.828,114.741l-76.615-0.088c-12.773,0-25.538,1.227-38.029,3.919
		C117.082,239.846,0.002,168.607,0.002,168.607V168.74z"/>
	<path style="fill:#58555D;" d="M201.493,99.08L201.493,99.08c3.858-3.063,7.371-6.312,10.372-9.816
		c43.396-50.759,88.276-61.793,88.276-61.793l17.655,17.655c5.87,5.711,11.582,10.752,17.196,15.404l-55.314,45.859
		C256.074,125.96,221.064,122.685,201.493,99.08"/>
	<g>
		<path style="fill:#77757E;" d="M282.485,71.606c-2.26,0-4.52-0.865-6.241-2.586l-17.655-17.655c-3.452-3.452-3.452-9.031,0-12.482
			c3.452-3.452,9.031-3.452,12.482,0l17.655,17.655c3.452,3.452,3.452,9.031,0,12.482C287.004,70.741,284.744,71.606,282.485,71.606
			"/>
		<path style="fill:#77757E;" d="M256.002,98.076c-2.26,0-4.52-0.865-6.25-2.586L227.427,73.12
			c-3.443-3.452-3.443-9.039,0.009-12.482c3.443-3.443,9.031-3.452,12.482,0.009l22.334,22.36c3.443,3.452,3.434,9.039-0.009,12.491
			C260.513,97.211,258.262,98.076,256.002,98.076"/>
	</g>
</g>
</svg>