<?xml version="1.0" encoding="iso-8859-1"?>
<!-- Uploaded to: SVG Repo, www.svgrepo.com, Generator: SVG Repo Mixer Tools -->
<svg height="800px" width="800px" version="1.1" id="Layer_1" xmlns="http://www.w3.org/2000/svg" xmlns:xlink="http://www.w3.org/1999/xlink" 
	 viewBox="0 0 512 512" xml:space="preserve">
<g>
	<path style="fill:#495E77;" d="M236.071,320.288c0,2.595-0.207,5.236-0.62,7.9c-5.81,37.214-24.733,69.549-51.625,92.571
		c-26.892,23.022-61.752,36.743-99.426,36.743c-0.735,0-1.47-0.012-2.205-0.034c-40.831-1.171-73.579-34.631-73.579-75.761V341.06
		c0-39.361,31.909-71.282,71.282-71.282h105.546C213.807,269.777,236.071,292.891,236.071,320.288z"/>
	<path style="fill:#495E77;" d="M503.392,341.06v40.647c0,41.865-33.942,75.795-75.795,75.795c-27.558,0-53.611-7.349-76.151-20.312
		c-8.267-4.742-16.052-10.254-23.275-16.431c-26.892-23.022-45.826-55.356-51.625-92.571c-0.413-2.664-0.62-5.305-0.62-7.9
		c0-27.397,22.264-50.511,50.626-50.511h105.557C471.471,269.777,503.392,301.698,503.392,341.06z"/>
</g>
<g>
	<path style="fill:#62788E;" d="M503.392,341.06v40.647c0,41.865-33.942,75.795-75.795,75.795c-27.558,0-53.611-7.349-76.151-20.312
		c42.955-72.947,55.448-137.708,59.065-167.413h21.598C471.471,269.777,503.392,301.698,503.392,341.06z"/>
	<path style="fill:#62788E;" d="M236.071,320.288c0,2.595-0.207,5.236-0.62,7.9c-5.81,37.214-24.733,69.549-51.625,92.571
		c-26.892,23.022-61.752,36.743-99.426,36.743c-0.735,0-1.47-0.012-2.205-0.034c53.209-81.042,67.746-155.264,71.696-187.69h31.553
		C213.807,269.777,236.071,292.891,236.071,320.288z"/>
</g>
<path d="M471.006,50.026c-2.469-4.066-7.766-5.359-11.831-2.891c-4.066,2.469-5.359,7.766-2.891,11.83
	c25.182,41.468,38.492,89.031,38.492,137.545v95.088c-14.645-18.515-37.285-30.431-62.671-30.431H109.434
	c-4.756,0-8.612,3.856-8.612,8.612s3.856,8.612,8.612,8.612h76.011c12.286,0,23.915,5.353,31.906,14.686
	c7.989,9.333,11.487,21.648,9.592,33.787c-5.298,33.972-22.6,64.995-48.718,87.355c-26.118,22.361-59.437,34.674-93.82,34.674
	c-37.043,0.001-67.181-30.137-67.181-67.18v-40.652c0-34.556,28.113-62.671,62.671-62.671h0.834c4.756,0,8.612-3.856,8.612-8.612
	s-3.856-8.612-8.612-8.612h-0.834c-25.385,0-48.026,11.915-62.671,30.431V196.51c0-48.514,13.31-96.076,38.492-137.545
	c2.469-4.066,1.173-9.363-2.891-11.83c-4.067-2.469-9.363-1.175-11.831,2.891C14.175,94.189,0,144.843,0,196.51v144.551v40.652
	c0,46.541,37.864,84.404,84.406,84.404c38.488,0,75.785-13.785,105.021-38.815c27.358-23.423,46.073-55.337,53.224-90.5h26.699
	c7.151,35.164,25.866,67.079,53.225,90.5c29.236,25.03,66.533,38.815,105.021,38.815c35.098,0,65.989-21.134,78.7-53.842
	c1.722-4.433-0.474-9.424-4.908-11.146c-4.436-1.724-9.425,0.475-11.147,4.908c-10.117,26.035-34.708,42.857-62.645,42.857
	c-34.383,0-67.701-12.315-93.82-34.674c-26.118-22.361-43.419-53.384-48.718-87.355c-1.893-12.139,1.603-24.454,9.594-33.787
	c7.989-9.333,19.619-14.686,31.905-14.686h105.55c34.557,0,62.671,28.113,62.671,62.671v40.652c0,4.756,3.856,8.612,8.612,8.612
	S512,386.47,512,381.714v-40.652V196.511C512,144.843,497.825,94.188,471.006,50.026z M281.567,281.875
	c-9.085,10.612-14.043,23.958-14.225,37.703h-22.683c-0.183-13.746-5.141-27.091-14.225-37.703c-1.04-1.216-2.139-2.367-3.264-3.485
	h57.661C283.706,279.509,282.608,280.659,281.567,281.875z"/>
</svg>