<?xml version="1.0" encoding="iso-8859-1"?>
<!-- Uploaded to: SVG Repo, www.svgrepo.com, Generator: SVG Repo Mixer Tools -->
<svg height="800px" width="800px" version="1.1" id="Layer_1" xmlns="http://www.w3.org/2000/svg" xmlns:xlink="http://www.w3.org/1999/xlink" 
	 viewBox="0 0 512.001 512.001" xml:space="preserve">
<path style="fill:#F15A24;" d="M199.441,92.285c-31.87-27.689-77.423-3.013-79.936,44.028c-0.041,0.755-0.07,1.513-0.09,2.274
	c-0.475,18.568,5.195,35.546,14.759,48.24c8.134,10.796,12.882,24.635,12.882,39.173v0.156c0,20.813-2.631,41.506-7.806,61.376
	l-7.435,28.554c-3.652,14.026-5.51,28.632-5.51,43.324v21.31c56.331,0.274,102.112,54.053,103.71,121.082h52.837
	c1.589-66.685,46.911-120.251,102.845-121.069V359.41c0-14.692-1.857-29.298-5.51-43.324l-7.435-28.554
	c-5.174-19.87-7.806-40.563-7.806-61.376V226c0-14.538,4.747-28.377,12.882-39.173c9.565-12.694,15.235-29.672,14.759-48.24
	c-0.02-0.805-0.053-1.605-0.097-2.403c-2.579-46.893-47.756-71.705-79.74-44.451l-27.908,23.78
	c-17.694,15.078-41.457,14.948-59.036-0.324L199.441,92.285z"/>
<path d="M382.622,284.962c-4.961-19.051-7.477-38.836-7.477-58.806V226c0-12.036,3.846-23.768,10.826-33.035
	c11.357-15.071,17.326-34.475,16.81-54.643c-0.023-0.903-0.06-1.803-0.108-2.699c-1.533-27.858-16.599-51.216-39.32-60.958
	c-3.477-1.491-7.023-2.594-10.596-3.328L327.77,6.533c-2.026-5.256-7.932-7.874-13.185-5.847c-5.256,2.027-7.874,7.93-5.846,13.185
	l22.208,57.594c-8.833,1.924-17.32,6.122-24.81,12.504l-27.908,23.78c-13.934,11.872-31.885,11.771-45.732-0.26l-26.364-22.905
	c-7.575-6.582-16.191-10.904-25.173-12.868l22.305-57.844c2.027-5.256-0.592-11.159-5.847-13.185
	c-5.254-2.025-11.159,0.592-13.185,5.847l-25.083,65.049c-3.51,0.72-6.995,1.794-10.415,3.244
	c-22.82,9.676-37.921,33.028-39.413,60.942c-0.045,0.85-0.079,1.702-0.101,2.557c-0.516,20.162,5.453,39.566,16.809,54.639
	c6.982,9.267,10.828,20.999,10.828,33.035v0.156c0,19.968-2.516,39.753-7.477,58.806l-7.435,28.555
	c-3.875,14.879-5.839,30.32-5.839,45.894v21.31c0,5.614,4.536,10.172,10.149,10.199c50.986,0.249,92.084,49.061,93.563,111.126
	c0.132,5.537,4.658,9.956,10.196,9.956h52.837c5.538,0,10.065-4.419,10.196-9.956c1.468-61.567,42.23-110.374,92.798-111.114
	c5.574-0.082,10.05-4.623,10.05-10.198V359.41c0-15.574-1.964-31.016-5.839-45.894L382.622,284.962z M375.497,371.194
	c-26.224,3.068-50.56,16.594-69.38,38.775c-18.751,22.101-30.261,50.784-32.916,81.634h-33.535
	c-2.669-31.033-14.29-59.85-33.229-82.002c-19.003-22.227-43.535-35.659-69.932-38.51V359.41c0-13.84,1.743-27.552,5.181-40.754
	l7.435-28.555c5.398-20.73,8.136-42.245,8.136-63.947v-0.156c0-16.437-5.304-32.528-14.935-45.31
	c-8.595-11.407-13.109-26.266-12.709-41.842c0.017-0.666,0.043-1.33,0.079-1.99c1.072-20.07,11.42-36.642,27.006-43.251
	c12.264-5.2,25.406-2.875,36.057,6.378l26.364,22.905c10.492,9.115,22.978,13.971,36.107,14.043c0.1,0,0.197,0,0.297,0
	c13.026,0,25.448-4.718,35.936-13.656l27.908-23.78c10.667-9.088,23.769-11.307,35.952-6.083
	c15.543,6.665,25.885,23.268,26.989,43.33c0.039,0.7,0.066,1.402,0.085,2.104c0.399,15.575-4.114,30.435-12.71,41.842
	c-9.629,12.782-14.934,28.874-14.934,45.31v0.156c0,21.703,2.737,43.218,8.135,63.947l7.435,28.555
	c3.438,13.202,5.181,26.913,5.181,40.754v11.784H375.497z"/>
<path d="M207.682,358.993c-4.494-3.397-10.89-2.51-14.287,1.982c-3.398,4.493-2.511,10.889,1.982,14.287
	c14.846,11.229,27.717,26.584,37.224,44.407c1.836,3.441,5.362,5.4,9.008,5.4c1.619,0,3.263-0.387,4.792-1.202
	c4.97-2.651,6.85-8.829,4.199-13.799C239.71,389.655,224.87,371.995,207.682,358.993z"/>
<path d="M177.675,341.898c-5.536-2.232-11.25-4.066-16.982-5.452c-5.475-1.323-10.986,2.042-12.31,7.518
	c-1.323,5.476,2.042,10.987,7.518,12.31c4.77,1.152,9.53,2.681,14.147,4.543c1.25,0.504,2.541,0.742,3.81,0.742
	c4.037,0,7.86-2.414,9.463-6.388C185.427,349.947,182.899,344.004,177.675,341.898z"/>
</svg>