<?xml version="1.0" encoding="iso-8859-1"?>
<!-- Uploaded to: SVG Repo, www.svgrepo.com, Generator: SVG Repo Mixer Tools -->
<svg height="800px" width="800px" version="1.1" id="Layer_1" xmlns="http://www.w3.org/2000/svg" xmlns:xlink="http://www.w3.org/1999/xlink" 
	 viewBox="0 0 504.136 504.136" xml:space="preserve">
<path style="fill:#445066;" d="M349.238,158.745c4.892,4.892,4.892,12.832,0,17.723l0,0c-4.892,4.892-12.824,4.892-17.707,0
	l-3.852-3.844c-4.892-4.907-4.892-12.832,0-17.723l0,0c4.884-4.892,12.824-4.892,17.707,0L349.238,158.745z"/>
<path style="fill:#995B31;" d="M491.921,370.745c15.139,15.124,16.376,38.432,2.757,52.043l-71.885,71.893
	c-13.611,13.619-36.919,12.367-52.035-2.757L12.224,133.397C-2.931,118.258-4.152,94.95,9.443,81.354L81.328,9.462
	c13.619-13.619,36.919-12.367,52.059,2.773L491.921,370.745z"/>
<path style="fill:#894F28;" d="M9.451,81.347L81.336,9.454c13.619-13.619,36.919-12.367,52.059,2.773l358.526,358.518
	c15.139,15.124,16.376,38.432,2.757,52.043l-71.885,71.893"/>
<g>
	<path style="fill:#593217;" d="M111.639,70.075l-24.166-0.016V45.916c0-4.813-3.899-8.72-8.704-8.704
		c-4.813,0-8.704,3.891-8.704,8.704v24.135l-24.159,0.024c-4.813,0-8.72,3.891-8.704,8.704c-0.016,4.797,3.891,8.704,8.704,8.704
		h24.151l0.008,24.151c0,4.813,3.883,8.704,8.696,8.704c2.418,0,4.6-0.969,6.168-2.536c1.575-1.583,2.552-3.773,2.536-6.168V87.483
		h24.174c2.402,0,4.576-0.969,6.144-2.552c1.568-1.583,2.568-3.757,2.552-6.152C120.351,73.966,116.459,70.075,111.639,70.075z"/>
	<path style="fill:#593217;" d="M167.092,125.52h-24.166V101.37c0-4.797-3.891-8.696-8.712-8.704c-4.813,0-8.704,3.907-8.704,8.704
		v24.151h-24.135c-4.813,0-8.704,3.891-8.704,8.704c0,4.813,3.891,8.704,8.704,8.704h24.135l0.016,24.151
		c0,4.813,3.899,8.72,8.712,8.72c2.402,0,4.576-0.969,6.16-2.552c1.552-1.583,2.552-3.757,2.552-6.168l-0.024-24.151h24.166
		c2.395,0,4.576-0.969,6.16-2.552c1.568-1.568,2.552-3.742,2.552-6.152C175.812,129.412,171.913,125.52,167.092,125.52z"/>
	<path style="fill:#593217;" d="M402.778,361.198h-24.166v-24.135c0-4.813-3.891-8.704-8.712-8.704
		c-4.797,0-8.712,3.891-8.712,8.704v24.135h-24.135c-4.805,0-8.704,3.907-8.704,8.704c0,4.813,3.899,8.72,8.704,8.72h24.135
		l0.016,24.151c0,4.813,3.899,8.704,8.712,8.704c2.402,0,4.592-0.969,6.16-2.552c1.583-1.568,2.552-3.742,2.552-6.152l-0.016-24.151
		h24.166c2.41,0,4.584-0.969,6.152-2.552c1.583-1.568,2.552-3.757,2.552-6.168C411.489,365.105,407.598,361.198,402.778,361.198z"/>
	<path style="fill:#593217;" d="M458.231,416.659h-24.159v-24.151c0-4.797-3.891-8.704-8.704-8.696
		c-4.829,0-8.712,3.891-8.712,8.704v24.135h-24.151c-4.805,0-8.712,3.891-8.696,8.72c-0.016,4.797,3.891,8.704,8.696,8.696h24.151
		l0.008,24.166c0,4.813,3.891,8.704,8.712,8.704c2.41,0,4.577-0.985,6.16-2.552c1.568-1.583,2.544-3.757,2.536-6.152v-24.166h24.166
		c2.402,0.016,4.569-0.969,6.152-2.536c1.575-1.583,2.56-3.757,2.552-6.152C466.951,420.55,463.052,416.659,458.231,416.659z"/>
</g>
<circle style="fill:#79AAAA;" cx="252.068" cy="252.079" r="123.093"/>
<path style="fill:#8BBABC;" d="M165.028,165.039c48.065-48.065,126.015-48.065,174.08,0c48.081,48.065,48.081,126.015,0.008,174.08"
	/>
<circle style="fill:#445066;" cx="252.068" cy="252.079" r="96.587"/>
<path style="fill:#364254;" d="M183.775,183.778c37.715-37.707,98.879-37.707,136.594,0c37.723,37.723,37.723,98.879,0,136.602"/>
<path style="fill:#8BBABC;" d="M352.334,167.993c8.058,8.074,21.173,8.074,29.263,0l0,0c8.074-8.09,8.074-21.181,0-29.263
	l-16.179-16.187c-8.082-8.074-21.181-8.074-29.271,0l0,0c-8.082,8.09-8.082,21.181,0,29.279L352.334,167.993z"/>
<path style="fill:#79AAAA;" d="M336.147,122.551L336.147,122.551c-8.082,8.09-8.082,21.181,0,29.279l16.187,16.171
	c8.058,8.074,21.173,8.074,29.263,0l0,0"/>
<g>
	<path style="fill:#6B7D96;" d="M209.068,207.007c0.559,0.567,0.559,1.489,0,2.064l0,0c-0.559,0.567-1.497,0.567-2.064,0
		l-13.856-13.863c-0.575-0.567-0.575-1.489,0-2.064l0,0c0.559-0.551,1.481-0.567,2.064,0L209.068,207.007z"/>
	<path style="fill:#6B7D96;" d="M310.996,308.95c0.551,0.551,0.551,1.489,0,2.048l0,0c-0.583,0.567-1.497,0.567-2.064,0.016
		l-13.855-13.863c-0.575-0.583-0.575-1.489,0-2.064l0,0c0.559-0.567,1.481-0.567,2.064,0L310.996,308.95z"/>
	<path style="fill:#6B7D96;" d="M253.518,189.812c0,0.803-0.646,1.465-1.465,1.465l0,0c-0.788,0-1.449-0.677-1.449-1.465v-19.598
		c0-0.803,0.654-1.449,1.465-1.465l0,0c0.788,0.016,1.449,0.662,1.449,1.465V189.812z"/>
	<path style="fill:#6B7D96;" d="M253.518,333.952c0,0.803-0.662,1.465-1.449,1.449l0,0c-0.811,0.016-1.465-0.646-1.465-1.449V314.37
		c0-0.819,0.646-1.465,1.465-1.465l0,0c0.788,0,1.449,0.63,1.449,1.465V333.952z"/>
	<path style="fill:#6B7D96;" d="M297.117,209.071c-0.559,0.567-1.489,0.567-2.056,0l0,0c-0.559-0.551-0.559-1.489,0-2.064
		l13.871-13.848c0.559-0.567,1.481-0.567,2.064-0.016l0,0c0.551,0.567,0.551,1.504-0.024,2.079L297.117,209.071z"/>
	<path style="fill:#6B7D96;" d="M195.197,311.006c-0.559,0.551-1.481,0.551-2.048-0.016l0,0c-0.575-0.551-0.575-1.481-0.016-2.048
		l13.871-13.863c0.559-0.567,1.481-0.567,2.056,0l0,0c0.567,0.567,0.567,1.481,0,2.064L195.197,311.006z"/>
	<path style="fill:#6B7D96;" d="M314.351,253.536c-0.819,0-1.481-0.646-1.481-1.465l0,0c0.008-0.788,0.685-1.434,1.457-1.449h19.614
		c0.803,0,1.457,0.662,1.465,1.449l0,0c-0.008,0.819-0.662,1.465-1.473,1.465H314.351z"/>
	<path style="fill:#6B7D96;" d="M170.196,253.52c-0.819,0.016-1.465-0.63-1.449-1.449l0,0c-0.016-0.788,0.646-1.449,1.449-1.465
		l19.582,0.016c0.811,0,1.449,0.646,1.473,1.465l0,0c0,0.788-0.67,1.449-1.465,1.449L170.196,253.52z"/>
	<path style="fill:#6B7D96;" d="M192.298,234.561c0.772,0.197,1.237,1,1.032,1.772l0,0c-0.213,0.788-1.008,1.245-1.796,1.032
		l-18.92-5.065c-0.788-0.197-1.245-1.016-1.024-1.788l0,0c0.189-0.772,0.992-1.229,1.772-1.032L192.298,234.561z"/>
	<path style="fill:#6B7D96;" d="M331.515,271.858c0.772,0.228,1.237,1.032,1.04,1.788l0,0c-0.205,0.788-1.024,1.26-1.788,1.032
		l-18.928-5.065c-0.788-0.197-1.229-1.016-1.04-1.788l0,0c0.213-0.772,1.008-1.229,1.796-1.032L331.515,271.858z"/>
	<path style="fill:#6B7D96;" d="M222.191,197.437c0.41,0.693,0.165,1.583-0.528,1.985l0,0c-0.693,0.386-1.575,0.142-1.993-0.536
		l-9.799-16.967c-0.402-0.709-0.158-1.583,0.544-2.001l0,0c0.677-0.402,1.583-0.165,1.993,0.536L222.191,197.437z"/>
	<path style="fill:#6B7D96;" d="M294.265,322.254c0.41,0.709,0.158,1.583-0.543,2.001l0,0c-0.677,0.386-1.583,0.158-1.977-0.536
		l-9.799-16.983c-0.41-0.693-0.165-1.568,0.528-1.969l0,0c0.693-0.402,1.575-0.165,1.985,0.52L294.265,322.254z"/>
	<path style="fill:#6B7D96;" d="M269.587,192.317c-0.205,0.788-1.008,1.229-1.796,1.032l0,0c-0.764-0.197-1.221-1.016-1.016-1.772
		l5.073-18.952c0.205-0.788,1.008-1.229,1.78-1.032l0,0c0.772,0.213,1.252,1.016,1.032,1.804L269.587,192.317z"/>
	<path style="fill:#6B7D96;" d="M232.274,331.549c-0.197,0.788-1,1.229-1.772,1.016l0,0c-0.78-0.197-1.245-1-1.04-1.772
		l5.081-18.936c0.189-0.772,1.008-1.229,1.764-1.016l0,0c0.796,0.197,1.252,1,1.048,1.788L232.274,331.549z"/>
	<path style="fill:#6B7D96;" d="M306.719,222.194c-0.693,0.417-1.599,0.181-2.009-0.488l0,0c-0.41-0.709-0.134-1.599,0.543-2.032
		l16.983-9.767c0.701-0.417,1.583-0.165,1.993,0.52l0,0c0.394,0.709,0.158,1.599-0.544,2.001L306.719,222.194z"/>
	<path style="fill:#6B7D96;" d="M181.869,294.283c-0.709,0.418-1.583,0.158-1.985-0.536l0,0c-0.402-0.677-0.142-1.568,0.52-1.985
		l16.975-9.783c0.701-0.417,1.599-0.181,2.009,0.52l0,0c0.402,0.677,0.158,1.599-0.52,1.985L181.869,294.283z"/>
	<path style="fill:#6B7D96;" d="M191.55,266.809c0.756-0.213,1.568,0.244,1.78,1.032l0,0c0.205,0.772-0.26,1.552-1.024,1.772
		l-18.944,5.088c-0.78,0.197-1.568-0.276-1.772-1.063l0,0c-0.221-0.74,0.221-1.536,1.024-1.772L191.55,266.809z"/>
	<path style="fill:#6B7D96;" d="M330.775,229.504c0.764-0.197,1.575,0.26,1.788,1.016l0,0c0.197,0.788-0.236,1.583-1.024,1.788
		l-18.92,5.081c-0.788,0.213-1.583-0.26-1.804-1.016l0,0c-0.197-0.788,0.252-1.583,1.024-1.788L330.775,229.504z"/>
	<path style="fill:#6B7D96;" d="M198.876,219.705c0.709,0.386,0.937,1.292,0.52,2.001l0,0c-0.41,0.677-1.292,0.906-1.985,0.504
		l-16.967-9.799c-0.677-0.402-0.937-1.276-0.536-1.969l0,0c0.402-0.709,1.292-0.953,2.001-0.567L198.876,219.705z"/>
	<path style="fill:#6B7D96;" d="M323.693,291.779c0.709,0.386,0.929,1.292,0.536,1.985l0,0c-0.41,0.693-1.3,0.922-1.993,0.52
		l-16.967-9.799c-0.717-0.402-0.937-1.276-0.52-1.969l0,0c0.402-0.709,1.276-0.937,1.977-0.551L323.693,291.779z"/>
	<path style="fill:#6B7D96;" d="M237.346,191.56c0.228,0.788-0.244,1.583-1.016,1.788l0,0c-0.788,0.228-1.568-0.276-1.796-1.016
		l-5.073-18.936c-0.221-0.788,0.252-1.583,1.04-1.804l0,0c0.764-0.181,1.56,0.276,1.788,1.048L237.346,191.56z"/>
	<path style="fill:#6B7D96;" d="M274.659,330.809c0.221,0.788-0.26,1.568-1.032,1.757l0,0c-0.756,0.213-1.568-0.228-1.78-1
		l-5.057-18.936c-0.236-0.772,0.236-1.583,1.016-1.772l0,0c0.772-0.213,1.568,0.244,1.796,1.016L274.659,330.809z"/>
	<path style="fill:#6B7D96;" d="M284.458,198.886c-0.386,0.709-1.292,0.953-1.985,0.551l0,0c-0.709-0.402-0.922-1.292-0.536-2.001
		l9.815-16.967c0.402-0.709,1.292-0.937,1.985-0.551l0,0c0.685,0.433,0.922,1.308,0.544,2.016L284.458,198.886z"/>
	<path style="fill:#6B7D96;" d="M212.377,323.735c-0.41,0.709-1.292,0.922-1.969,0.52l0,0c-0.725-0.386-0.937-1.292-0.559-1.985
		l9.815-16.951c0.394-0.709,1.3-0.953,1.993-0.551l0,0c0.693,0.386,0.937,1.308,0.528,2.001L212.377,323.735z"/>
</g>
<path style="fill:#EF972E;" d="M248.335,243.335c1.386,1.402,1.386,3.631,0.016,5.018l0,0c-1.402,1.386-3.631,1.386-5.025,0
	l-36.966-36.966c-1.378-1.386-1.378-3.616,0-5.018l0,0c1.394-1.371,3.631-1.371,5.01,0L248.335,243.335z"/>
<path style="fill:#FC5A00;" d="M279.937,224.21c2.552,2.552,2.552,6.711,0,9.263l-18.487,18.479c-2.56,2.552-6.711,2.552-9.255,0
	l0,0c-2.536-2.552-2.536-6.695,0-9.247l18.495-18.495C273.226,221.674,277.377,221.674,279.937,224.21L279.937,224.21z"/>
<circle style="fill:#8BBABC;" cx="252.068" cy="252.079" r="12.698"/>
</svg>