<?xml version="1.0" encoding="iso-8859-1"?>
<!-- Uploaded to: SVG Repo, www.svgrepo.com, Generator: SVG Repo Mixer Tools -->
<svg height="800px" width="800px" version="1.1" id="Layer_1" xmlns="http://www.w3.org/2000/svg" xmlns:xlink="http://www.w3.org/1999/xlink" 
	 viewBox="0 0 512 512" xml:space="preserve">
<path style="fill:#2C8D7E;" d="M256,137.262c-12.032,0-21.786-9.754-21.786-21.786V99.752c0-30.045,14.183-58.965,37.939-77.36
	l23.025-17.831c9.516-7.365,23.199-5.627,30.564,3.887c7.366,9.513,5.627,23.197-3.887,30.564L298.83,56.842
	c-13.177,10.203-21.044,26.245-21.044,42.909v15.724C277.786,127.508,268.032,137.262,256,137.262z"/>
<path style="fill:#237669;" d="M325.742,8.448c-7.365-9.512-21.048-11.252-30.564-3.887l-23.026,17.831
	c-4.003,3.099-7.727,6.505-11.164,10.157v104.117c9.623-2.258,16.797-10.877,16.797-21.189V99.752
	c0-16.666,7.868-32.706,21.044-42.909l23.026-17.831C331.369,31.645,333.109,17.961,325.742,8.448z"/>
<path style="fill:#F15A58;" d="M256,512c-11.038,0-21.809-1.789-32.133-5.332c-3.843,1.111-7.748,1.991-11.682,2.629
	c-5.295,0.86-10.685,1.296-16.017,1.296c-48.922,0-90.128-35.094-97.978-83.444L62.999,210.387
	c-8.78-54.075,28.072-105.214,82.148-113.993c5.29-0.858,10.672-1.294,15.997-1.294c15.983,0,31.893,3.99,46.074,11.416
	c14.814-8.341,31.674-12.825,48.783-12.825c17.093,0,33.936,4.476,48.741,12.8c14.171-7.488,29.86-11.391,46.115-11.391
	c5.326,0,10.707,0.436,15.997,1.294c54.077,8.78,90.928,59.918,82.15,113.993l-35.194,216.761
	c-7.849,48.348-49.054,83.439-97.969,83.444c-0.006,0-0.003,0-0.01,0c-5.333,0-10.721-0.436-16.014-1.296
	c-3.933-0.638-7.837-1.518-11.682-2.629C277.809,510.21,267.037,512,256,512z"/>
<path style="fill:#C74A48;" d="M366.852,96.394c-5.29-0.858-10.671-1.294-15.997-1.294c-16.257,0-31.944,3.903-46.115,11.391
	c-13.361-7.513-28.385-11.879-43.752-12.66v418.034c9.295-0.459,18.383-2.189,27.144-5.195c3.843,1.111,7.748,1.991,11.682,2.629
	c5.294,0.86,10.681,1.296,16.014,1.296c0.006,0,0.003,0,0.01,0c48.915-0.004,90.12-35.095,97.969-83.444l35.194-216.761
	C457.78,156.312,420.929,105.173,366.852,96.394z"/>
</svg>