<?xml version="1.0" encoding="iso-8859-1"?>
<!-- Uploaded to: SVG Repo, www.svgrepo.com, Generator: SVG Repo Mixer Tools -->
<svg height="800px" width="800px" version="1.1" id="Layer_1" xmlns="http://www.w3.org/2000/svg" xmlns:xlink="http://www.w3.org/1999/xlink" 
	 viewBox="0 0 388.982 388.982" xml:space="preserve">
<g>
	<path style="fill:#7C98AB;" d="M352.75,79.196l-70.568-16.078c-3.287-1-6.696-1.713-10.198-2.129V47.095
		c0-6.996-5.671-12.667-12.667-12.667s-12.667,5.671-12.667,12.667v6.637c-13.736-12.604-32.046-20.304-52.158-20.304
		s-38.422,7.699-52.158,20.305v-6.638c0-6.996-5.671-12.667-12.667-12.667c-6.995,0-12.667,5.671-12.667,12.667v13.897
		c-3.442,0.411-6.856,1.115-10.197,2.131l-0.001-0.005l-70.57,16.078C15.637,82.877,0,100.865,0,122.519
		C0,139.838,10.005,154.814,24.547,162l140.354,79.35l0.003-0.006c6.141,3.551,12.782,5.907,19.587,7.072v53.404
		c0,18.602-15.133,33.734-33.733,33.734c-9.013,0-17.484-3.509-23.854-9.881c-3.904-3.905-10.236-3.905-14.142-0.002
		c-3.906,3.905-3.906,10.236-0.002,14.143c10.147,10.15,23.643,15.74,37.998,15.74c29.629,0,53.733-24.105,53.733-53.734v-53.404
		c6.806-1.165,13.446-3.521,19.587-7.073l0.003,0.007l140.358-79.351c14.54-7.188,24.543-22.163,24.543-39.48
		C388.982,100.865,373.346,82.877,352.75,79.196z"/>
	<path style="fill:#5F7585;" d="M352.75,79.196l-70.568-16.078c-3.287-1-6.696-1.713-10.198-2.129V47.095
		c0-6.996-5.671-12.667-12.667-12.667s-12.667,5.671-12.667,12.667v6.637c-13.736-12.604-32.046-20.304-52.158-20.304
		s-38.422,7.699-52.158,20.305v-6.638c0-6.996-5.671-12.667-12.667-12.667c-6.995,0-12.667,5.671-12.667,12.667v13.897
		c-3.442,0.411-6.856,1.115-10.197,2.131l-0.001-0.005l-70.57,16.078C18.167,82.425,3.919,96.663,0.69,114.727
		c2.492,13.94,11.548,25.604,23.857,31.686l140.354,79.35l0.003-0.006c9.125,5.277,19.354,7.927,29.587,7.927
		s20.462-2.649,29.587-7.928l0.003,0.007l140.358-79.351c12.307-6.084,21.36-17.746,23.853-31.684
		C385.064,96.663,370.816,82.425,352.75,79.196z"/>
	<circle style="fill:#333E48;" cx="149.166" cy="80.672" r="5.5"/>
	<circle style="fill:#333E48;" cx="239.816" cy="80.672" r="5.5"/>
	<circle style="fill:#7C98AB;" cx="130.499" cy="157.189" r="8.833"/>
	<circle style="fill:#7C98AB;" cx="245.316" cy="180.395" r="8.833"/>
	<circle style="fill:#7C98AB;" cx="249.65" cy="198.926" r="4.333"/>
	<circle style="fill:#7C98AB;" cx="264.983" cy="170.875" r="4.333"/>
	<circle style="fill:#7C98AB;" cx="340.626" cy="130.094" r="4.333"/>
	<circle style="fill:#7C98AB;" cx="114.165" cy="180.394" r="4.333"/>
	<circle style="fill:#7C98AB;" cx="48.357" cy="110.602" r="4.333"/>
</g>
</svg>