<?xml version="1.0" encoding="iso-8859-1"?>
<!-- Uploaded to: SVG Repo, www.svgrepo.com, Generator: SVG Repo Mixer Tools -->
<svg height="800px" width="800px" version="1.1" id="Layer_1" xmlns="http://www.w3.org/2000/svg" xmlns:xlink="http://www.w3.org/1999/xlink" 
	 viewBox="0 0 381.6 381.6" xml:space="preserve">
<path style="fill:#F4DBC3;" d="M190.8,381.6c39.2,0,76.8-9.6,108.8-27.2l-12-188c0-53.6-43.2-106.4-96.8-106.4S94,112.8,94,166.4
	l-12,188C114,371.2,151.6,381.6,190.8,381.6z"/>
<path style="fill:#EACBA9;" d="M190.8,381.6c39.2,0,76.8-9.6,108.8-27.2l-12-188c0-53.6-43.2-96.8-96.8-96.8S94,112.8,94,166.4
	l-12,188C114,371.2,151.6,381.6,190.8,381.6z"/>
<path style="fill:#EAD4B5;" d="M102.8,364l88-294.4c-53.6,0-96.8,43.2-96.8,96.8l-12,188C88.4,357.6,95.6,360.8,102.8,364z"/>
<path style="fill:#E5BB98;" d="M287.6,166.4c0-53.6-40.8-96.8-96.8-96.8v312c40,0,76.8-9.6,108.8-27.2L287.6,166.4z"/>
<path style="fill:#F9EDD7;" d="M262.8,154.4c0,28-32,64-72,64s-72-36-72-64s32-50.4,72-50.4S262.8,126.4,262.8,154.4z"/>
<path style="fill:#F4E6D0;" d="M190.8,110.4c-38.4,0-68.8,20.8-72,47.2c2.4,27.2,33.6,60.8,72,60.8s68.8-32.8,72-60.8
	C259.6,131.2,229.2,110.4,190.8,110.4z"/>
<path style="fill:#F9EEE1;" d="M118.8,157.6c1.6,14.4,10.4,30.4,24.8,42.4l32-88C144.4,116.8,121.2,135.2,118.8,157.6z"/>
<g>
	<path style="fill:#EFD9C2;" d="M190.8,218.4c38.4,0,68.8-32.8,72-60.8c-2.4-26.4-33.6-47.2-72-47.2"/>
	<path style="fill:#EFD9C2;" d="M224.4,208.8c-9.6-4-21.6-5.6-33.6-5.6s-23.2,2.4-33.6,5.6c10.4,5.6,21.6,8.8,33.6,8.8
		C202.8,218.4,214,214.4,224.4,208.8z"/>
</g>
<path style="fill:#00C49E;" d="M339.6,172.8c-6.4,0-12-5.6-12-12C327.6,85.6,266,24,190.8,24S54,85.6,54,160.8c0,6.4-5.6,12-12,12
	s-12-5.6-12-12C30,72,102,0,190.8,0s160.8,72,160.8,160.8C351.6,167.2,346.8,172.8,339.6,172.8z"/>
</svg>